<svg width="32" height="32" viewBox="0 0 32 32" fill="none" xmlns="http://www.w3.org/2000/svg">
<g clip-path="url(#clip0_605_15127)">
<path d="M16 1.0625C24.25 1.0625 30.925 7.7375 30.925 15.975C30.925 24.2125 24.25 30.9 16 30.9C7.74995 30.9 1.07495 24.225 1.07495 15.9875C1.07495 7.75 7.74995 1.0625 16 1.0625Z" fill="#E74D89"/>
<path d="M16 31.9625C7.175 31.9625 0 24.8 0 15.9875C0 7.1625 7.175 0 16 0C24.825 0 32 7.1625 32 15.975C32 24.7875 24.825 31.9625 16 31.9625ZM29.4875 18.1625C29.025 18.0125 25.2625 16.9 20.975 17.575C22.7625 22.475 23.4875 26.475 23.625 27.3C26.7 25.2375 28.8875 21.9625 29.4875 18.1625ZM21.3375 28.5625C21.1375 27.3625 20.3375 23.1875 18.425 18.2125C18.4 18.225 18.3625 18.2375 18.3375 18.2375C10.625 20.925 7.8625 26.2625 7.6125 26.7625C9.925 28.5625 12.8375 29.6375 16 29.6375C17.8875 29.65 19.7 29.2625 21.3375 28.5625ZM5.85 25.125C6.1625 24.6 9.9125 18.4 16.9625 16.1125C17.1375 16.05 17.325 16 17.5 15.95C17.1625 15.175 16.7875 14.4 16.3875 13.6375C9.5625 15.675 2.9375 15.5875 2.3375 15.575C2.3375 15.7125 2.325 15.85 2.325 15.9875C2.3375 19.5 3.6625 22.7 5.85 25.125ZM2.625 13.2C3.2375 13.2125 8.8625 13.2375 15.2625 11.5375C13 7.5125 10.55 4.1375 10.2 3.65C6.3625 5.45 3.5125 8.975 2.625 13.2ZM12.8 2.725C13.175 3.225 15.6625 6.6 17.9 10.7125C22.7625 8.8875 24.8125 6.1375 25.0625 5.7875C22.65 3.65 19.475 2.35 16 2.35C14.9 2.35 13.825 2.4875 12.8 2.725ZM26.575 7.3625C26.2875 7.75 24 10.6875 18.95 12.75C19.2625 13.4 19.575 14.0625 19.8625 14.725C19.9625 14.9625 20.0625 15.2 20.1625 15.425C24.7125 14.85 29.225 15.775 29.675 15.8625C29.6375 12.65 28.4875 9.6875 26.575 7.3625Z" fill="#B2215A"/>
</g>
<defs>
<clipPath id="clip0_605_15127">
<rect width="32" height="32" fill="white"/>
</clipPath>
</defs>
</svg>
