<svg width="24" height="24" viewBox="0 0 24 24" fill="none" xmlns="http://www.w3.org/2000/svg">
<g clip-path="url(#clip0_605_15132)">
<path d="M21.9381 0.375H2.10058C1.16309 0.375 0.413086 1.125 0.413086 2.0625V21.9375C0.413086 22.8375 1.16309 23.625 2.10058 23.625H21.8631C22.8006 23.625 23.5506 22.875 23.5506 21.9375V2.025C23.6256 1.125 22.8756 0.375 21.9381 0.375ZM7.2756 20.1375H3.8631V9.075H7.2756V20.1375ZM5.5506 7.5375C4.4256 7.5375 3.56308 6.6375 3.56308 5.55C3.56308 4.4625 4.4631 3.5625 5.5506 3.5625C6.6381 3.5625 7.5381 4.4625 7.5381 5.55C7.5381 6.6375 6.7131 7.5375 5.5506 7.5375ZM20.2131 20.1375H16.8006V14.775C16.8006 13.5 16.7631 11.8125 15.0006 11.8125C13.2006 11.8125 12.9381 13.2375 12.9381 14.6625V20.1375H9.5256V9.075H12.8631V10.6125H12.9006C13.3881 9.7125 14.4756 8.8125 16.1631 8.8125C19.6506 8.8125 20.2881 11.0625 20.2881 14.1375V20.1375H20.2131Z" fill="#0B65C2"/>
</g>
<defs>
<clipPath id="clip0_605_15132">
<rect width="24" height="24" fill="white"/>
</clipPath>
</defs>
</svg>
