<svg width="30" height="30" viewBox="0 0 30 30" fill="none" xmlns="http://www.w3.org/2000/svg">
<path d="M30 15C30 23.2843 23.2843 30 15 30C6.71573 30 0 23.2843 0 15C0 6.71573 6.71573 0 15 0C23.2843 0 30 6.71573 30 15ZM5.82206 15C5.82206 20.0688 9.93116 24.1779 15 24.1779C20.0688 24.1779 24.1779 20.0688 24.1779 15C24.1779 9.93116 20.0688 5.82206 15 5.82206C9.93116 5.82206 5.82206 9.93116 5.82206 15Z" fill="#E5E7EB"/>
<path d="M26.0711 10.1447C27.5434 9.49895 29.2914 10.1686 29.641 11.7379C30.151 14.0271 30.1201 16.418 29.5323 18.7164C28.7025 21.9611 26.8107 24.8348 24.1583 26.8796C21.5059 28.9245 18.2454 30.0228 14.8964 29.9996C11.5473 29.9765 8.30233 28.8332 5.67841 26.7519C3.0545 24.6707 1.20259 21.7711 0.417721 18.5152C-0.367143 15.2594 -0.0398089 11.8345 1.34757 8.78624C2.73496 5.73799 5.10257 3.24172 8.07323 1.69514C10.1775 0.59962 12.4986 0.0252566 14.8438 0.000814452C16.4515 -0.0159403 17.5014 1.53369 17.2078 3.11436C16.9142 4.69504 15.3716 5.68973 13.7782 5.90376C12.7321 6.04427 11.7109 6.36512 10.7618 6.85925C8.94413 7.80555 7.49547 9.33292 6.64659 11.198C5.7977 13.0631 5.59741 15.1587 6.07764 17.1508C6.55787 19.143 7.69099 20.9171 9.29647 22.1906C10.9019 23.464 12.8874 24.1636 14.9366 24.1777C16.9857 24.1919 18.9807 23.5199 20.6036 22.2687C22.2265 21.0176 23.3841 19.2593 23.8918 17.2739C24.1569 16.2373 24.2369 15.1698 24.1356 14.1192C23.9813 12.5189 24.5987 10.7904 26.0711 10.1447Z" fill="#5750F1"/>
</svg>
