<svg width="174" height="30" viewBox="0 0 174 30" fill="none" xmlns="http://www.w3.org/2000/svg">
<path opacity="0.2" d="M30 15C30 23.2843 23.2843 30 15 30C6.71573 30 0 23.2843 0 15C0 6.71573 6.71573 0 15 0C23.2843 0 30 6.71573 30 15ZM5.82206 15C5.82206 20.0688 9.93116 24.1779 15 24.1779C20.0688 24.1779 24.1779 20.0688 24.1779 15C24.1779 9.93116 20.0688 5.82206 15 5.82206C9.93116 5.82206 5.82206 9.93116 5.82206 15Z" fill="#D1D5DB"/>
<path d="M26.0711 10.1447C27.5434 9.49895 29.2914 10.1686 29.641 11.7379C30.151 14.0271 30.1201 16.418 29.5323 18.7164C28.7025 21.9611 26.8107 24.8348 24.1583 26.8796C21.5059 28.9245 18.2454 30.0228 14.8964 29.9996C11.5473 29.9765 8.30233 28.8332 5.67841 26.7519C3.0545 24.6707 1.20259 21.7711 0.417721 18.5152C-0.367143 15.2594 -0.0398089 11.8345 1.34757 8.78624C2.73496 5.73799 5.10257 3.24172 8.07323 1.69514C10.1775 0.59962 12.4986 0.0252566 14.8438 0.000814452C16.4515 -0.0159403 17.5014 1.53369 17.2078 3.11436V3.11436C16.9142 4.69504 15.3716 5.68973 13.7782 5.90376C12.7321 6.04427 11.7109 6.36512 10.7618 6.85925C8.94413 7.80555 7.49547 9.33292 6.64659 11.198C5.7977 13.0631 5.59741 15.1587 6.07764 17.1508C6.55787 19.143 7.69099 20.9171 9.29647 22.1906C10.9019 23.464 12.8874 24.1636 14.9366 24.1777C16.9857 24.1919 18.9807 23.5199 20.6036 22.2687C22.2265 21.0176 23.3841 19.2593 23.8918 17.2739C24.1569 16.2373 24.2369 15.1698 24.1356 14.1192C23.9813 12.5189 24.5987 10.7904 26.0711 10.1447V10.1447Z" fill="#5750F1"/>
<path d="M48.3289 24.6565H45V5.34346H48.3554L57.4174 19.0291V5.34346H60.7464V24.6565H57.4174L48.3289 10.9709V24.6565Z" fill="white"/>
<path d="M69.8563 25C65.9726 25 63.2513 22.1731 63.2513 18.1308C63.2513 14.0357 65.9197 11.2087 69.7507 11.2087C73.6608 11.2087 76.1443 13.8243 76.1443 17.893V18.8705L66.316 18.897C66.5538 21.1955 67.7692 22.358 69.9092 22.358C71.6793 22.358 72.8418 21.6711 73.2117 20.4293H76.1972C75.6423 23.2827 73.2645 25 69.8563 25ZM69.7771 13.8507C67.8748 13.8507 66.7124 14.8811 66.3953 16.8362H72.9475C72.9475 15.0396 71.7057 13.8507 69.7771 13.8507Z" fill="white"/>
<path d="M79.8743 24.6565H76.2019L80.6933 18.2629L76.2019 11.605H79.9536L82.8333 16.0436L85.6075 11.605H89.227L84.7884 18.21L89.0949 24.6565H85.3961L82.622 20.3501L79.8743 24.6565Z" fill="white"/>
<path d="M95.0578 24.6565H91.8345V14.2999H89.0604L90.7873 11.605H91.8345V8.32893H95.0578V11.605H97.5941V14.2999H95.0578V24.6565Z" fill="white"/>
<path d="M102.795 24.6565H99.2809L106.256 5.34346H109.717L116.692 24.6565H113.125L111.566 20.1915H104.354L102.795 24.6565ZM107.55 11.103L105.357 17.3382H110.589L108.369 11.103C108.211 10.6011 108.026 10.0198 107.973 9.62351C107.894 9.9934 107.735 10.5746 107.55 11.103Z" fill="white"/>
<path d="M122.615 25C118.837 25 116.486 22.2259 116.486 18.1836C116.486 14.1149 118.864 11.2087 122.8 11.2087C124.623 11.2087 126.235 11.9749 127.054 13.2695V5H130.251V24.6565H127.292L127.08 22.6222C126.288 24.1281 124.597 25 122.615 25ZM123.329 22.041C125.574 22.041 127.027 20.4293 127.027 18.0779C127.027 15.7266 125.574 14.0885 123.329 14.0885C121.083 14.0885 119.709 15.753 119.709 18.0779C119.709 20.4029 121.083 22.041 123.329 22.041Z" fill="white"/>
<path d="M136.04 24.6565H132.817V11.605H135.776L136.04 13.1374C136.701 12.0542 138.022 11.2087 139.898 11.2087C141.879 11.2087 143.253 12.1863 143.94 13.6922C144.6 12.1863 146.133 11.2087 148.114 11.2087C151.285 11.2087 153.028 13.111 153.028 16.1229V24.6565H149.832V16.9683C149.832 15.0925 148.828 14.1149 147.295 14.1149C145.736 14.1149 144.548 15.1189 144.548 17.2589V24.6565H141.324V16.9419C141.324 15.1189 140.347 14.1413 138.814 14.1413C137.282 14.1413 136.04 15.1453 136.04 17.2589V24.6565Z" fill="white"/>
<path d="M157.012 8.98943C155.902 8.98943 155.03 8.11757 155.03 7.03435C155.03 5.95112 155.902 5.10568 157.012 5.10568C158.068 5.10568 158.94 5.95112 158.94 7.03435C158.94 8.11757 158.068 8.98943 157.012 8.98943ZM155.4 24.6565V11.605H158.623V24.6565H155.4Z" fill="white"/>
<path d="M164.384 24.6565H161.161V11.605H164.146L164.41 13.2959C165.23 11.9749 166.815 11.2087 168.585 11.2087C171.861 11.2087 173.552 13.2431 173.552 16.6248V24.6565H170.329V17.391C170.329 15.1982 169.245 14.1413 167.581 14.1413C165.599 14.1413 164.384 15.5152 164.384 17.6288V24.6565Z" fill="white"/>
</svg>
