<svg width="48" height="48" viewBox="0 0 48 48" fill="none" xmlns="http://www.w3.org/2000/svg">
<circle cx="24" cy="24" r="24" fill="#212529"/>
<path d="M24 12.675C17.625 12.675 12.375 17.85 12.375 24.3C12.375 29.4 15.7125 33.75 20.3625 35.325C20.9625 35.4375 21.15 35.0625 21.15 34.8C21.15 34.5375 21.15 33.7875 21.1125 32.775C17.8875 33.525 17.2125 31.2 17.2125 31.2C16.6875 29.8875 15.9 29.5125 15.9 29.5125C14.85 28.7625 15.9375 28.7625 15.9375 28.7625C17.1 28.8 17.7375 29.9625 17.7375 29.9625C18.75 31.7625 20.475 31.2375 21.1125 30.9C21.225 30.15 21.525 29.625 21.8625 29.325C19.3125 29.0625 16.575 28.05 16.575 23.625C16.575 22.35 17.0625 21.3375 17.775 20.55C17.6625 20.2875 17.25 19.0875 17.8875 17.475C17.8875 17.475 18.9 17.175 21.1125 18.675C22.05 18.4125 23.025 18.2625 24.0375 18.2625C25.05 18.2625 26.0625 18.375 26.9625 18.675C29.175 17.2125 30.15 17.475 30.15 17.475C30.7875 19.05 30.4125 20.2875 30.2625 20.55C31.0125 21.3375 31.4625 22.3875 31.4625 23.625C31.4625 28.05 28.725 29.0625 26.175 29.325C26.5875 29.7 26.9625 30.45 26.9625 31.5C26.9625 33.075 26.925 34.3125 26.925 34.6875C26.925 34.9875 27.15 35.325 27.7125 35.2125C32.2875 33.675 35.625 29.3625 35.625 24.225C35.5875 17.85 30.375 12.675 24 12.675Z" fill="white"/>
</svg>
