<svg width="48" height="48" viewBox="0 0 48 48" fill="none" xmlns="http://www.w3.org/2000/svg">
<circle cx="24" cy="24" r="24" fill="#EEF0F2"/>
<path d="M36.0002 24.2662C36.0147 23.4413 35.9278 22.6176 35.7414 21.813H24.2451V26.2662H30.9933C30.8655 27.0471 30.5778 27.7945 30.1476 28.4636C29.7174 29.1326 29.1536 29.7095 28.49 30.1595L28.4665 30.3087L32.1016 33.0683L32.3533 33.093C34.6661 30.9996 35.9997 27.9195 35.9997 24.2662" fill="#4285F4"/>
<path d="M24.2449 36C27.5509 36 30.3264 34.9333 32.3539 33.0933L28.4898 30.1598C27.4559 30.8667 26.0681 31.36 24.2449 31.36C22.6965 31.3512 21.1902 30.8646 19.9398 29.9695C18.6894 29.0744 17.7584 27.8162 17.2789 26.3733L17.1354 26.3853L13.3556 29.2519L13.3062 29.3865C14.3241 31.3748 15.8864 33.0464 17.8183 34.2143C19.7502 35.3822 21.9755 36.0005 24.2454 36" fill="#34A853"/>
<path d="M17.2788 26.3733C17.011 25.6094 16.8728 24.8077 16.8697 24C16.8746 23.1936 17.0077 22.393 17.2642 21.6267L17.2574 21.4677L13.4312 18.5549L13.3061 18.6133C12.4473 20.2842 12 22.129 12 23.9999C12 25.8708 12.4473 27.7156 13.3061 29.3865L17.2788 26.3733Z" fill="#FBBC05"/>
<path d="M24.2449 16.6399C25.9995 16.6132 27.6964 17.2535 28.9796 18.4266L32.4355 15.1199C30.219 13.0821 27.2838 11.964 24.2449 11.9999C21.975 11.9993 19.7497 12.6176 17.8179 13.7855C15.886 14.9534 14.3237 16.6249 13.3057 18.6131L17.2652 21.6266C17.7495 20.184 18.6836 18.9267 19.9358 18.032C21.1881 17.1373 22.6953 16.6504 24.2449 16.6399Z" fill="#EB4335"/>
</svg>
