<svg width="29" height="13" viewBox="0 0 29 13" fill="none" xmlns="http://www.w3.org/2000/svg">
<path d="M0.771973 2.0502V2.8502H5.96116V2.0502H0.771973Z" fill="#1F70C1"/>
<path d="M0.771973 1.2502H5.96116V0.450195H0.771973V1.2502Z" fill="#1F70C1"/>
<path d="M6.70247 2.0502V2.8502H15.5469C15.4956 2.56709 15.407 2.29837 15.287 2.0502H6.70247Z" fill="#1F70C1"/>
<path d="M14.7227 1.2502H6.70247V0.450195H12.8421C13.5691 0.450195 14.2303 0.75392 14.7227 1.2502Z" fill="#1F70C1"/>
<path d="M16.3395 2.0502V2.8502H21.4228L21.211 2.0502H16.3395Z" fill="#1F70C1"/>
<path d="M20.9992 1.2502H16.3395V0.450195H20.7874L20.9992 1.2502Z" fill="#1F70C1"/>
<path d="M23.3291 2.0502L23.1173 2.8502H28.2005V2.0502H23.3291Z" fill="#1F70C1"/>
<path d="M28.2005 1.2502H23.5409L23.7527 0.450195H28.2005V1.2502Z" fill="#1F70C1"/>
<path d="M26.7179 3.6502H22.9055L22.6936 4.4502H26.7179V3.6502Z" fill="#1F70C1"/>
<path d="M26.7179 5.2502H24.494H22.4818L22.27 6.0502L22.0582 5.2502H20.0461H17.8222V6.0502H20.0461V5.2502L20.2932 6.0502H22.27H24.2469L24.494 5.2502V6.0502H26.7179V5.2502Z" fill="#1F70C1"/>
<path d="M26.7179 6.8502H24.494V7.6502H26.7179V6.8502Z" fill="#1F70C1"/>
<path d="M26.7179 8.4502H24.494V9.2502H26.7179V8.4502Z" fill="#1F70C1"/>
<path d="M28.2005 10.0502H24.494V10.8502H28.2005V10.0502Z" fill="#1F70C1"/>
<path d="M28.2005 11.6502H24.494V12.4502H28.2005V11.6502Z" fill="#1F70C1"/>
<path d="M0.771973 12.4502H5.96116V11.6502H0.771973V12.4502Z" fill="#1F70C1"/>
<path d="M0.771973 10.8502H5.96116V10.0502H0.771973V10.8502Z" fill="#1F70C1"/>
<path d="M2.2546 9.2502H4.47854V8.4502H2.2546V9.2502Z" fill="#1F70C1"/>
<path d="M2.2546 7.6502H4.47854V6.8502H2.2546V7.6502Z" fill="#1F70C1"/>
<path d="M2.2546 6.0502H4.47854V5.2502H2.2546V6.0502Z" fill="#1F70C1"/>
<path d="M2.2546 4.4502H4.47854V3.6502H2.2546V4.4502Z" fill="#1F70C1"/>
<path d="M8.1851 3.6502V4.4502H10.409V3.6502H8.1851Z" fill="#1F70C1"/>
<path d="M13.0036 3.6502V4.4502H15.4296C15.5158 4.19722 15.5709 3.92866 15.5904 3.6502H13.0036Z" fill="#1F70C1"/>
<path d="M17.8222 3.6502V4.4502H21.8464L21.6346 3.6502H17.8222Z" fill="#1F70C1"/>
<path d="M15.018 5.2502H8.1851V6.0502H14.1378C14.4822 5.85216 14.7815 5.57823 15.018 5.2502Z" fill="#1F70C1"/>
<path d="M14.1378 6.8502H8.1851V7.6502H15.018C14.7815 7.32216 14.4822 7.04823 14.1378 6.8502Z" fill="#1F70C1"/>
<path d="M15.4296 8.4502H12.633V9.2502H15.5904C15.5709 8.97173 15.5158 8.70317 15.4296 8.4502Z" fill="#1F70C1"/>
<path d="M17.8222 9.2502V8.4502H20.0461V9.2502H17.8222Z" fill="#1F70C1"/>
<path d="M20.0461 10.0502H16.3395V10.8502H20.0461V10.0502Z" fill="#1F70C1"/>
<path d="M21.7758 10.8502L21.5287 10.0502H23.0114L22.7642 10.8502H21.7758Z" fill="#1F70C1"/>
<path d="M20.0461 11.6502H16.3395V12.4502H20.0461V11.6502Z" fill="#1F70C1"/>
<path d="M12.8421 12.4502C13.5691 12.4502 14.2303 12.1465 14.7227 11.6502H6.70247V12.4502H12.8421Z" fill="#1F70C1"/>
<path d="M6.70247 10.8502H15.287C15.407 10.602 15.4956 10.3333 15.5469 10.0502H6.70247V10.8502Z" fill="#1F70C1"/>
<path d="M8.1851 9.2502H10.409V8.4502H8.1851V9.2502Z" fill="#1F70C1"/>
<path d="M22.0229 11.6502H22.5171L22.27 12.4502L22.0229 11.6502Z" fill="#1F70C1"/>
<path d="M23.2585 9.2502H21.2816L21.0345 8.4502H23.5056L23.2585 9.2502Z" fill="#1F70C1"/>
<path d="M23.7527 7.6502L23.9998 6.8502H20.5403L20.7874 7.6502H23.7527Z" fill="#1F70C1"/>
<path d="M20.0461 7.6502H17.8222V6.8502H20.0461V7.6502Z" fill="#1F70C1"/>
</svg>
