<svg width="43" height="43" viewBox="0 0 43 43" fill="none" xmlns="http://www.w3.org/2000/svg">
<path d="M39.2499 21.8166C39.2713 20.5787 39.1432 19.3408 38.8729 18.1384H21.969V24.8189H31.8936C31.5166 27.188 30.1862 29.2938 28.2155 30.6598L28.1799 30.8804L33.5228 35.021L33.8928 35.0565C37.2864 31.9191 39.2499 27.3018 39.2499 21.8166Z" fill="#4285F4"/>
<path d="M21.9683 39.4174C26.8274 39.4174 30.9111 37.8167 33.892 35.0563L28.2147 30.6524C26.3721 31.8904 24.188 32.5164 21.9754 32.4524C17.3083 32.4239 13.1819 29.4074 11.7306 24.968L11.5172 24.9894L5.96079 29.2865L5.88965 29.4857C8.93462 35.5827 15.1597 39.4245 21.9683 39.4174Z" fill="#34A853"/>
<path d="M11.723 24.9755C11.3317 23.83 11.1254 22.6277 11.1254 21.4111C11.1325 20.2017 11.3317 18.9993 11.7088 17.8468L11.7016 17.612L6.07413 13.2438L5.88916 13.3291C3.32796 18.416 3.32796 24.4063 5.88916 29.4931L11.723 24.9755Z" fill="#FBBC05"/>
<path d="M21.9676 10.3765C24.5501 10.3338 27.0402 11.2942 28.9255 13.0586L34.0052 8.09986C30.7468 5.04065 26.4283 3.36876 21.9605 3.41856C15.152 3.41856 8.92685 7.25324 5.87476 13.3432L11.6944 17.8609C13.1599 13.4214 17.2934 10.4049 21.9676 10.3765Z" fill="#EB4335"/>
</svg>
