<svg width="23" height="23" viewBox="0 0 23 23" fill="none" xmlns="http://www.w3.org/2000/svg">
<path d="M11.4868 22.4501L14.5779 5.06642C17.524 5.06642 18.4533 5.38949 18.5876 6.70818C18.5876 6.70818 20.5641 5.97125 21.5608 4.47456C17.6709 2.67206 13.7624 2.59077 13.7624 2.59077L11.4818 5.36858L11.4869 5.36823L9.20616 2.59033C9.20616 2.59033 5.2976 2.67171 1.4082 4.47421C2.40416 5.9709 4.38136 6.70783 4.38136 6.70783C4.51632 5.38906 5.4445 5.06599 8.37095 5.0639L11.4868 22.4501Z" fill="#E31937"/>
<path d="M11.4866 1.78848C14.631 1.76443 18.2301 2.27492 21.9147 3.88077C22.4071 2.99442 22.5337 2.60269 22.5337 2.60269C18.506 1.00921 14.7341 0.463874 11.4862 0.450195C8.23828 0.463874 4.4666 1.0093 0.439453 2.60269C0.439453 2.60269 0.619111 3.08521 1.05806 3.88077C4.74184 2.27492 8.3417 1.76443 11.4862 1.78848H11.4866Z" fill="#E31937"/>
</svg>
