<svg width="42" height="42" viewBox="0 0 42 42" fill="none" xmlns="http://www.w3.org/2000/svg">
<circle cx="21" cy="21" r="21" fill="black"/>
<path d="M8.94421 27.0721C9.01755 26.9548 9.13483 26.9474 9.29604 27.0501C12.9626 29.1768 16.9523 30.2401 21.264 30.2401C24.1386 30.2401 26.9768 29.7047 29.7781 28.6339C29.8514 28.6045 29.9579 28.5606 30.0971 28.5018C30.2364 28.4429 30.3354 28.399 30.3942 28.3696C30.6143 28.2817 30.7867 28.3257 30.9114 28.5018C31.0361 28.6779 30.9955 28.8391 30.7904 28.9858C30.5264 29.1764 30.1891 29.3964 29.7784 29.6459C28.517 30.3939 27.109 30.9732 25.5546 31.3838C23.9998 31.7945 22.4819 32 21.0004 32C18.7126 32 16.5491 31.6002 14.5103 30.8012C12.4715 30.0018 10.6457 28.8763 9.03207 27.4243C8.94421 27.351 8.8999 27.2776 8.8999 27.2043C8.90027 27.16 8.91479 27.116 8.94421 27.0721ZM28.5904 27.4463C28.6198 27.3874 28.6637 27.329 28.7226 27.2702C29.0893 27.0207 29.4411 26.8521 29.7784 26.7642C30.3358 26.6175 30.8786 26.5367 31.4066 26.5222C31.5532 26.5077 31.6925 26.5147 31.8247 26.5442C32.4848 26.603 32.8805 26.7128 33.0127 26.874C33.0715 26.9619 33.1006 27.0941 33.1006 27.2702V27.4243C33.1006 27.9377 32.9613 28.5427 32.6825 29.2393C32.4036 29.9359 32.0153 30.497 31.5164 30.9222C31.443 30.981 31.3771 31.01 31.3183 31.01C31.2889 31.01 31.2595 31.0026 31.2304 30.9881C31.1426 30.9441 31.1206 30.8633 31.1646 30.7461C31.7074 29.4702 31.9784 28.5826 31.9784 28.084C31.9784 27.9228 31.949 27.8052 31.8906 27.7322C31.7439 27.5561 31.3332 27.4682 30.6586 27.4682C30.4091 27.4682 30.1157 27.4828 29.7784 27.5122C29.4117 27.5561 29.0744 27.6 28.7665 27.6443C28.6786 27.6443 28.6198 27.6298 28.5904 27.6004C28.561 27.571 28.5535 27.5416 28.5684 27.5125C28.5684 27.4973 28.5759 27.4753 28.5904 27.4463Z" fill="#F0931B"/>
<path d="M27.8645 22.21C27.6299 21.9021 27.4613 21.6783 27.3585 21.5391C27.2558 21.3998 27.1497 21.1723 27.0395 20.857C26.9296 20.5417 26.8745 20.1932 26.8745 19.8119V14.4879C26.8745 14.429 26.8671 14.2421 26.8526 13.9268C26.838 13.6114 26.8157 13.4063 26.7867 13.3106C26.7576 13.2149 26.7133 13.0429 26.6545 12.7935C26.5957 12.544 26.5298 12.3534 26.4564 12.2216C26.3831 12.0894 26.284 11.9394 26.1593 11.7707C26.0357 11.6032 25.8994 11.4449 25.7524 11.2979C24.8138 10.4326 23.5084 10 21.8364 10H21.2865C19.9812 10.0733 18.8408 10.4252 17.8653 11.0559C16.8898 11.6866 16.2778 12.6546 16.0283 13.9599C16.0138 14.0187 16.0064 14.0697 16.0064 14.1141C16.0064 14.3196 16.1311 14.4514 16.3805 14.5102L18.9104 14.8181C19.1449 14.7742 19.2916 14.6055 19.3505 14.3121C19.4532 13.8426 19.6803 13.4763 20.0325 13.2119C20.3844 12.948 20.8025 12.7938 21.2865 12.7499H21.4626C22.1227 12.7499 22.6067 12.9699 22.9146 13.41C23.1198 13.7328 23.2225 14.3635 23.2225 15.3021V15.6759C22.3278 15.7492 21.6826 15.8077 21.2865 15.852C20.1278 15.9987 19.1524 16.2407 18.3605 16.578C17.4952 16.9447 16.8132 17.4872 16.3146 18.2061C15.8161 18.9247 15.5667 19.7903 15.5667 20.8023C15.5667 22.0782 15.9297 23.0648 16.6557 23.7614C17.3817 24.458 18.3095 24.8065 19.4387 24.8065C20.1722 24.8065 20.788 24.7331 21.2869 24.5865C22.0788 24.3664 22.8856 23.8091 23.7069 22.9144C23.7657 22.9877 23.8681 23.1307 24.0148 23.3433C24.1615 23.5559 24.268 23.6989 24.3339 23.7722C24.3998 23.8456 24.51 23.9628 24.6637 24.124C24.8179 24.2853 24.9973 24.4539 25.2028 24.63C25.4523 24.7328 25.6649 24.7179 25.841 24.5861C25.9437 24.4982 26.6035 23.926 27.8209 22.8701C27.9382 22.7822 27.997 22.6795 27.997 22.5622C27.9967 22.4594 27.9527 22.3422 27.8645 22.21ZM23.2225 18.294C23.2225 18.7635 23.2188 19.1008 23.2113 19.3059C23.2039 19.5111 23.16 19.7788 23.0792 20.109C22.9984 20.4389 22.8774 20.7434 22.7162 21.0219C22.3788 21.6526 21.9023 22.0488 21.2861 22.21C21.2567 22.21 21.2016 22.2174 21.1212 22.2319C21.0404 22.2465 20.9782 22.2539 20.9343 22.2539C20.4503 22.2539 20.0653 22.0815 19.7794 21.7368C19.4934 21.392 19.3505 20.9337 19.3505 20.3618C19.3505 19.1004 19.9957 18.2866 21.2865 17.9198C21.7266 17.8026 22.3718 17.7437 23.2225 17.7437V18.294Z" fill="white"/>
</svg>
