<svg width="27" height="27" viewBox="0 0 27 27" fill="none" xmlns="http://www.w3.org/2000/svg">
<path d="M25.2324 16.3843C25.2324 10.6968 22.3887 6.63428 18.7324 6.63428C15.8887 6.63428 13.8574 9.88428 13.8574 9.88428C12.2324 12.3218 12.2324 16.7905 14.6699 11.9155C14.6699 11.9155 16.7012 8.66553 18.7324 8.66553C21.5762 8.66553 23.0747 13.5405 23.0747 16.3843C23.0747 17.1968 22.7949 18.8218 21.1699 18.8218V21.2593C22.7949 21.2593 25.2324 20.0405 25.2324 16.3843Z" fill="url(#paint0_radial_1854_14461)"/>
<path d="M8.98242 6.63428V9.07178C6.38242 9.39678 4.91992 13.5405 4.91992 16.3843C4.91992 17.1968 5.32617 18.8218 6.54492 18.8218C8.57617 18.8218 10.9119 14.3367 13.0449 11.0564C14.1773 9.31496 15.3044 10.8102 14.4449 12.3218C12.4085 15.9034 10.3694 21.2593 6.54492 21.2593C4.91992 21.2593 2.48242 20.0405 2.48242 16.3843C2.48242 9.07178 6.95117 6.63428 8.98242 6.63428Z" fill="url(#paint1_radial_1854_14461)"/>
<path d="M21.1699 18.8218C18.3262 18.8218 15.0762 6.63428 8.98242 6.63428V9.07178C13.8574 9.07178 15.8887 21.2593 21.1699 21.2593V18.8218Z" fill="#0768E1"/>
<defs>
<radialGradient id="paint0_radial_1854_14461" cx="0" cy="0" r="1" gradientUnits="userSpaceOnUse" gradientTransform="translate(21.1699 20.4468) rotate(-101.31) scale(14.5003 11.278)">
<stop stop-color="#0768E1"/>
<stop offset="1" stop-color="#0082FB"/>
</radialGradient>
<radialGradient id="paint1_radial_1854_14461" cx="0" cy="0" r="1" gradientUnits="userSpaceOnUse" gradientTransform="translate(8.98242 8.25928) rotate(154.537) scale(9.44913 4.95599)">
<stop stop-color="#0768E1"/>
<stop offset="1" stop-color="#0082FB"/>
</radialGradient>
</defs>
</svg>
