<svg width="43" height="43" viewBox="0 0 43 43" fill="none" xmlns="http://www.w3.org/2000/svg">
<circle cx="21.6104" cy="21.4175" r="21" fill="#E31937"/>
<path d="M21.6108 33.4175L24.7019 16.0338C27.648 16.0338 28.5773 16.3569 28.7116 17.6756C28.7116 17.6756 30.6881 16.9387 31.6849 15.442C27.7949 13.6395 23.8865 13.5582 23.8865 13.5582L21.6058 16.336L21.6109 16.3356L19.3302 13.5577C19.3302 13.5577 15.4216 13.6391 11.5322 15.4416C12.5282 16.9383 14.5054 17.6752 14.5054 17.6752C14.6403 16.3565 15.5685 16.0334 18.495 16.0313L21.6108 33.4175Z" fill="white"/>
<path d="M21.6096 12.7558C24.7541 12.7317 28.3532 13.2422 32.0377 14.8481C32.5302 13.9617 32.6568 13.57 32.6568 13.57C28.629 11.9765 24.8572 11.4312 21.6092 11.4175C18.3613 11.4312 14.5896 11.9766 10.5625 13.57C10.5625 13.57 10.7422 14.0525 11.1811 14.8481C14.8649 13.2422 18.4648 12.7317 21.6093 12.7558H21.6096Z" fill="white"/>
</svg>
