<svg width="23" height="23" viewBox="0 0 23 23" fill="none" xmlns="http://www.w3.org/2000/svg">
<g clip-path="url(#clip0_1853_14283)">
<path d="M19.9799 8.48202C19.8563 8.57644 17.6737 9.78737 17.6737 12.48C17.6737 15.5944 20.451 16.6962 20.5341 16.7235C20.5213 16.7907 20.0929 18.2325 19.0698 19.7015C18.1575 20.9943 17.2048 22.285 15.7554 22.285C14.306 22.285 13.933 21.456 12.2598 21.456C10.6292 21.456 10.0495 22.3122 8.72368 22.3122C7.3979 22.3122 6.47284 21.116 5.40924 19.6469C4.17728 17.9218 3.18188 15.2418 3.18188 12.6982C3.18188 8.61845 5.87605 6.45468 8.52757 6.45468C9.93646 6.45468 11.1109 7.36552 11.9955 7.36552C12.8374 7.36552 14.1504 6.40013 15.7532 6.40013C16.3607 6.40013 18.5433 6.45468 19.9799 8.48202ZM14.9923 4.67292C15.6552 3.89851 16.1241 2.82399 16.1241 1.74947C16.1241 1.60046 16.1113 1.44936 16.0836 1.32764C15.0051 1.36751 13.7219 2.03489 12.9482 2.91843C12.3408 3.5984 11.7738 4.67292 11.7738 5.76213C11.7738 5.92586 11.8015 6.08952 11.8143 6.14197C11.8825 6.15459 11.9933 6.16927 12.1042 6.16927C13.0719 6.16927 14.2889 5.53127 14.9923 4.67292Z" fill="#1C2434"/>
</g>
<defs>
<clipPath id="clip0_1853_14283">
<rect width="22" height="22" fill="white" transform="translate(0.857422 0.820068)"/>
</clipPath>
</defs>
</svg>
