<svg width="43" height="43" viewBox="0 0 43 43" fill="none" xmlns="http://www.w3.org/2000/svg">
<circle cx="21.6104" cy="21.4175" r="21" fill="url(#paint0_linear_1835_11670)"/>
<path d="M12.1672 23.9689C12.1672 24.8887 12.369 25.5948 12.633 26.022C12.9789 26.5815 13.4949 26.8191 14.021 26.8191C14.6995 26.8191 15.3202 26.6507 16.5164 24.9962C17.4749 23.6702 18.6039 21.8089 19.3636 20.642L20.6503 18.6651C21.544 17.2922 22.5786 15.766 23.7647 14.7315C24.7334 13.887 25.7777 13.418 26.8289 13.418C28.594 13.418 30.2751 14.4408 31.5618 16.3591C32.9699 18.4599 33.6534 21.1062 33.6534 23.8369C33.6534 25.4604 33.3335 26.6532 32.7889 27.5956C32.2629 28.5069 31.2376 29.4175 29.5128 29.4175V26.8187C30.9897 26.8187 31.3582 25.4616 31.3582 23.9085C31.3582 21.6954 30.8422 19.2394 29.7055 17.4845C28.8989 16.2397 27.8535 15.4791 26.7033 15.4791C25.4593 15.4791 24.4583 16.4175 23.3333 18.0901C22.7352 18.9789 22.1212 20.062 21.4317 21.2841L20.6728 22.6286C19.1484 25.3322 18.7622 25.9477 17.9999 26.9635C16.6639 28.7426 15.5229 29.4171 14.021 29.4171C12.2393 29.4171 11.1126 28.6455 10.4148 27.4829C9.84522 26.5355 9.56543 25.2924 9.56543 23.8759L12.1672 23.9689Z" fill="white"/>
<path d="M11.6178 16.542C12.8106 14.7033 14.5321 13.4175 16.5065 13.4175C17.6499 13.4175 18.7868 13.7559 19.9736 14.7251C21.2719 15.7846 22.6558 17.5301 24.3822 20.4057L25.0012 21.4374C26.4957 23.927 27.3458 25.2078 27.8435 25.8118C28.4834 26.5874 28.9307 26.8187 29.5128 26.8187C30.9897 26.8187 31.3582 25.4616 31.3582 23.9085L33.6534 23.8369C33.6534 25.4604 33.3335 26.6532 32.7889 27.5956C32.2629 28.5069 31.2376 29.4175 29.5128 29.4175C28.4406 29.4175 27.4916 29.1842 26.4412 28.1932C25.634 27.4326 24.6896 26.0815 23.9633 24.8669L21.803 21.2582C20.7191 19.4472 19.7244 18.0969 19.1493 17.4853C18.5302 16.8277 17.7344 16.0336 16.4645 16.0336C15.4367 16.0336 14.5639 16.7548 13.8335 17.858L11.6178 16.542Z" fill="white"/>
<path d="M16.4645 16.0336C15.4367 16.0336 14.5639 16.7548 13.8335 17.858C12.8006 19.4169 12.1672 21.739 12.1672 23.9689C12.1672 24.8887 12.369 25.5948 12.633 26.022L10.4148 27.4829C9.84522 26.5355 9.56543 25.2924 9.56543 23.8759C9.56543 21.3001 10.2733 18.6153 11.6178 16.542C12.8106 14.7033 14.5321 13.4175 16.5065 13.4175L16.4645 16.0336Z" fill="white"/>
<defs>
<linearGradient id="paint0_linear_1835_11670" x1="-0.322963" y1="4.83418" x2="36.2764" y2="29.6588" gradientUnits="userSpaceOnUse">
<stop stop-color="#0064E1"/>
<stop offset="1" stop-color="#0082FB"/>
</linearGradient>
</defs>
</svg>
