<svg width="27" height="27" viewBox="0 0 27 27" fill="none" xmlns="http://www.w3.org/2000/svg">
<path d="M15.9369 2.38525L15.9265 7.39069L15.9162 12.3961L15.4384 11.2342V11.2312L14.8186 22.3742C15.428 23.852 15.7534 24.6416 15.7569 24.6445C15.7603 24.6475 16.1066 24.6654 16.5255 24.6833C17.7927 24.7369 19.3646 24.8531 20.5591 24.9812C20.8361 25.011 21.0715 25.0259 21.0888 25.014C21.1061 25.0021 21.1096 19.9073 21.1061 13.6892L21.0957 2.38525H15.9369V2.38525Z" fill="url(#paint0_linear_1850_14128)"/>
<path d="M6.60474 2.37041V13.6863C6.60474 19.9103 6.61166 25.0081 6.62205 25.0171C6.63243 25.026 7.07907 24.9873 7.61919 24.9366C8.15931 24.886 8.9037 24.8204 9.27417 24.7936C9.84199 24.7519 11.5454 24.6596 11.7393 24.6566C11.7982 24.6566 11.8016 24.4033 11.8086 19.8627L11.819 15.0688L12.231 16.0698C12.2933 16.2248 12.3141 16.2724 12.3764 16.4244L12.9961 5.2843C12.8646 4.9655 12.9338 5.13235 12.7849 4.76886C12.2794 3.53835 11.8501 2.49853 11.8328 2.45086L11.7982 2.36743H6.60474V2.37041Z" fill="url(#paint1_linear_1850_14128)"/>
<path d="M6.60474 2.37041L11.8155 15.0776V15.0717L12.2275 16.0727C14.5161 21.6472 15.7453 24.6386 15.7522 24.6445C15.7556 24.6475 16.1019 24.6654 16.5208 24.6833C17.788 24.7369 19.3599 24.8531 20.5544 24.9812C20.8279 25.011 21.0668 25.0259 21.0807 25.014L15.9149 12.3932V12.3961L15.4371 11.2342C14.9697 10.099 14.6581 9.33926 12.7781 4.76884C12.2726 3.53834 11.8432 2.49853 11.8259 2.45085L11.7913 2.36743H9.19801L6.60474 2.37041Z" fill="#E30A17"/>
<defs>
<linearGradient id="paint0_linear_1850_14128" x1="23.4329" y1="19.3078" x2="15.176" y2="22.9339" gradientUnits="userSpaceOnUse">
<stop stop-color="#B20610"/>
<stop offset="0.255959" stop-color="#B20610"/>
<stop offset="1" stop-color="#590004"/>
</linearGradient>
<linearGradient id="paint1_linear_1850_14128" x1="4.10087" y1="7.3323" x2="13.0304" y2="3.45605" gradientUnits="userSpaceOnUse">
<stop stop-color="#B20610"/>
<stop offset="0.255959" stop-color="#B20610"/>
<stop offset="1" stop-color="#590004"/>
</linearGradient>
</defs>
</svg>
