<svg width="25" height="23" viewBox="0 0 25 23" fill="none" xmlns="http://www.w3.org/2000/svg">
<path d="M0.430292 17.5223C0.503637 17.405 0.620915 17.3976 0.782127 17.5003C4.44866 19.627 8.43836 20.6903 12.7501 20.6903C15.6247 20.6903 18.4629 20.1549 21.2641 19.0841C21.3375 19.0547 21.444 19.0108 21.5832 18.952C21.7225 18.8931 21.8215 18.8492 21.8803 18.8198C22.1004 18.7319 22.2727 18.7759 22.3975 18.952C22.5222 19.1281 22.4816 19.2893 22.2765 19.436C22.0125 19.6266 21.6752 19.8466 21.2645 20.0961C20.0031 20.8441 18.595 21.4234 17.0406 21.834C15.4859 22.2447 13.9679 22.4502 12.4865 22.4502C10.1987 22.4502 8.03514 22.0503 5.99636 21.2514C3.95758 20.452 2.13176 19.3265 0.518157 17.8745C0.430292 17.8012 0.385986 17.7278 0.385986 17.6545C0.386359 17.6102 0.400879 17.5662 0.430292 17.5223ZM20.0765 17.8965C20.1059 17.8376 20.1498 17.7792 20.2086 17.7204C20.5754 17.4709 20.9272 17.3023 21.2645 17.2144C21.8219 17.0677 22.3647 16.9869 22.8926 16.9724C23.0393 16.9579 23.1786 16.9649 23.3107 16.9943C23.9709 17.0532 24.3666 17.163 24.4988 17.3242C24.5576 17.4121 24.5867 17.5443 24.5867 17.7204V17.8745C24.5867 18.3879 24.4474 18.9929 24.1686 19.6895C23.8897 20.3861 23.5014 20.9472 23.0025 21.3724C22.9291 21.4312 22.8632 21.4602 22.8044 21.4602C22.775 21.4602 22.7456 21.4528 22.7165 21.4383C22.6287 21.3943 22.6067 21.3135 22.6506 21.1963C23.1935 19.9204 23.4645 19.0328 23.4645 18.5342C23.4645 18.373 23.4351 18.2554 23.3766 18.1824C23.23 18.0063 22.8193 17.9184 22.1447 17.9184C21.8952 17.9184 21.6018 17.9329 21.2645 17.9624C20.8978 18.0063 20.5605 18.0502 20.2526 18.0945C20.1647 18.0945 20.1059 18.08 20.0765 18.0506C20.0471 18.0212 20.0396 17.9918 20.0545 17.9627C20.0545 17.9475 20.0619 17.9255 20.0765 17.8965Z" fill="#F0931B"/>
<path d="M19.3506 12.6602C19.116 12.3523 18.9474 12.1285 18.8446 11.9893C18.7419 11.85 18.6357 11.6225 18.5255 11.3072C18.4157 10.9918 18.3606 10.6434 18.3606 10.2621V4.93805C18.3606 4.87922 18.3532 4.69232 18.3386 4.37697C18.3241 4.06163 18.3018 3.85648 18.2727 3.7608C18.2437 3.66511 18.1994 3.4931 18.1406 3.24366C18.0817 2.99421 18.0158 2.80358 17.9425 2.67178C17.8692 2.53961 17.7701 2.38957 17.6454 2.22091C17.5218 2.05337 17.3855 1.89514 17.2385 1.74808C16.2999 0.882822 14.9945 0.450195 13.3225 0.450195H12.7726C11.4672 0.523541 10.3268 0.875376 9.35139 1.50607C8.37593 2.13677 7.76385 3.10478 7.5144 4.41011C7.49988 4.46894 7.49244 4.51994 7.49244 4.56425C7.49244 4.76976 7.61716 4.90156 7.86661 4.96039L10.3965 5.26829C10.631 5.22436 10.7777 5.0557 10.8365 4.76232C10.9393 4.29283 11.1664 3.92648 11.5186 3.66213C11.8705 3.39816 12.2886 3.24403 12.7726 3.20009H12.9487C13.6088 3.20009 14.0928 3.42013 14.4007 3.8602C14.6058 4.183 14.7086 4.8137 14.7086 5.7523V6.1261C13.8139 6.19944 13.1687 6.2579 12.7726 6.3022C11.6139 6.44889 10.6385 6.6909 9.84657 7.02821C8.98131 7.39494 8.29924 7.9374 7.80071 8.65633C7.30218 9.37489 7.05273 10.2405 7.05273 11.2525C7.05273 12.5284 7.41574 13.515 8.14175 14.2116C8.86776 14.9082 9.79556 15.2567 10.9248 15.2567C11.6582 15.2567 12.274 15.1833 12.7729 15.0366C13.5648 14.8166 14.3717 14.2593 15.193 13.3646C15.2518 13.4379 15.3542 13.5809 15.5009 13.7935C15.6476 14.0061 15.754 14.1491 15.8199 14.2224C15.8858 14.2957 15.996 14.413 16.1498 14.5742C16.304 14.7354 16.4834 14.9041 16.6889 15.0802C16.9384 15.183 17.151 15.1681 17.3271 15.0363C17.4298 14.9484 18.0896 14.3762 19.307 13.3203C19.4243 13.2324 19.4831 13.1297 19.4831 13.0124C19.4828 12.9096 19.4388 12.7923 19.3506 12.6602ZM14.7086 8.7442C14.7086 9.21368 14.7049 9.551 14.6974 9.75614C14.69 9.96129 14.646 10.229 14.5653 10.5592C14.4845 10.8891 14.3635 11.1936 14.2022 11.4721C13.8649 12.1028 13.3884 12.499 12.7722 12.6602C12.7428 12.6602 12.6877 12.6676 12.6073 12.6821C12.5265 12.6967 12.4643 12.7041 12.4204 12.7041C11.9364 12.7041 11.5514 12.5317 11.2654 12.187C10.9795 11.8422 10.8365 11.3839 10.8365 10.812C10.8365 9.55063 11.4818 8.73675 12.7726 8.37002C13.2126 8.25275 13.8579 8.19392 14.7086 8.19392V8.7442Z" fill="black"/>
</svg>
