<svg width="43" height="43" viewBox="0 0 43 43" fill="none" xmlns="http://www.w3.org/2000/svg">
<circle cx="21.6104" cy="21.4175" r="21" fill="black"/>
<g clip-path="url(#clip0_1835_11648)">
<path d="M29.7329 18.0794C29.6092 18.1739 27.4266 19.3848 27.4266 22.0774C27.4266 25.1918 30.2039 26.2936 30.287 26.3209C30.2742 26.3881 29.8458 27.8299 28.8227 29.2989C27.9104 30.5917 26.9577 31.8824 25.5083 31.8824C24.0589 31.8824 23.6859 31.0534 22.0127 31.0534C20.3821 31.0534 19.8024 31.9097 18.4766 31.9097C17.1508 31.9097 16.2258 30.7134 15.1622 29.2444C13.9302 27.5193 12.9348 24.8392 12.9348 22.2957C12.9348 18.2159 15.629 16.0521 18.2805 16.0521C19.6894 16.0521 20.8638 16.9629 21.7484 16.9629C22.5903 16.9629 23.9033 15.9975 25.5062 15.9975C26.1136 15.9975 28.2962 16.0521 29.7329 18.0794ZM24.7452 14.2703C25.4081 13.4959 25.877 12.4214 25.877 11.3469C25.877 11.1979 25.8642 11.0468 25.8365 10.925C24.758 10.9649 23.4749 11.6323 22.7012 12.5158C22.0937 13.1958 21.5267 14.2703 21.5267 15.3595C21.5267 15.5233 21.5544 15.6869 21.5672 15.7394C21.6354 15.752 21.7463 15.7667 21.8571 15.7667C22.8248 15.7667 24.0419 15.1287 24.7452 14.2703Z" fill="white"/>
</g>
<defs>
<clipPath id="clip0_1835_11648">
<rect width="22" height="22" fill="white" transform="translate(10.6104 10.4175)"/>
</clipPath>
</defs>
</svg>
